{"accessors":[{"bufferView":0,"componentType":5126,"count":237,"min":[0.0],"max":[7.866667],"type":"SCALAR","name":"accessorAnimationInput"},{"bufferView":1,"componentType":5126,"count":237,"type":"VEC3","name":"accessorAnimationPositions"},{"bufferView":0,"byteOffset":948,"componentType":5126,"count":237,"min":[0.0],"max":[7.866667],"type":"SCALAR","name":"accessorAnimationInput"},{"bufferView":2,"componentType":5126,"count":237,"type":"VEC4","name":"accessorAnimationRotations"},{"bufferView":0,"byteOffset":1896,"componentType":5126,"count":237,"min":[0.0],"max":[7.866667],"type":"SCALAR","name":"accessorAnimationInput"},{"bufferView":1,"byteOffset":2844,"componentType":5126,"count":237,"type":"VEC3","name":"accessorAnimationScales"},{"bufferView":0,"byteOffset":2844,"componentType":5126,"count":237,"min":[0.0],"max":[7.866667],"type":"SCALAR","name":"accessorAnimationInput"},{"bufferView":1,"byteOffset":5688,"componentType":5126,"count":237,"type":"VEC3","name":"accessorAnimationPositions"},{"bufferView":0,"byteOffset":3792,"componentType":5126,"count":237,"min":[0.0],"max":[7.866667],"type":"SCALAR","name":"accessorAnimationInput"},{"bufferView":2,"byteOffset":3792,"componentType":5126,"count":237,"type":"VEC4","name":"accessorAnimationRotations"},{"bufferView":0,"byteOffset":4740,"componentType":5126,"count":237,"min":[0.0],"max":[7.866667],"type":"SCALAR","name":"accessorAnimationInput"},{"bufferView":1,"byteOffset":8532,"componentType":5126,"count":237,"type":"VEC3","name":"accessorAnimationScales"},{"bufferView":3,"componentType":5126,"count":10,"min":[-0.04908052086830139,-0.028290599584579469,-0.02829068899154663],"max":[0.04908037185668945,0.028290748596191407,0.028290748596191407],"type":"VEC3","name":"x4_FMS_Screen_1_vertices#0_POSITION"},{"bufferView":3,"byteOffset":12,"componentType":5120,"count":10,"type":"VEC4","name":"x4_FMS_Screen_1_vertices#0_TANGENT"},{"bufferView":3,"byteOffset":16,"componentType":5120,"count":10,"type":"VEC4","name":"x4_FMS_Screen_1_vertices#0_NORMAL"},{"bufferView":3,"byteOffset":20,"componentType":5122,"count":10,"type":"VEC2","name":"x4_FMS_Screen_1_vertices#0_TEXCOORD_0"},{"bufferView":3,"byteOffset":24,"componentType":5122,"count":10,"type":"VEC2","name":"x4_FMS_Screen_1_vertices#0_TEXCOORD_1"},{"bufferView":3,"byteOffset":28,"componentType":5123,"count":10,"type":"VEC4","name":"x4_FMS_Screen_1_vertices#0_COLOR_0"},{"bufferView":4,"componentType":5123,"count":24,"type":"SCALAR","name":"x4_FMS_Screen_1_indices#0"},{"bufferView":3,"byteOffset":360,"componentType":5126,"count":45,"min":[0.005405358970165253,-0.019072534516453744,0.24074162542819978],"max":[0.13812148571014405,0.09507301449775696,0.35439392924308779],"type":"VEC3","name":"x4_CDU_Frame_1_vertices#0_POSITION"},{"bufferView":3,"byteOffset":372,"componentType":5120,"count":45,"type":"VEC4","name":"x4_CDU_Frame_1_vertices#0_TANGENT"},{"bufferView":3,"byteOffset":376,"componentType":5120,"count":45,"type":"VEC4","name":"x4_CDU_Frame_1_vertices#0_NORMAL"},{"bufferView":3,"byteOffset":380,"componentType":5122,"count":45,"type":"VEC2","name":"x4_CDU_Frame_1_vertices#0_TEXCOORD_0"},{"bufferView":3,"byteOffset":384,"componentType":5122,"count":45,"type":"VEC2","name":"x4_CDU_Frame_1_vertices#0_TEXCOORD_1"},{"bufferView":3,"byteOffset":388,"componentType":5123,"count":45,"type":"VEC4","name":"x4_CDU_Frame_1_vertices#0_COLOR_0"},{"bufferView":4,"byteOffset":48,"componentType":5123,"count":123,"type":"SCALAR","name":"x4_CDU_Frame_1_indices#0"},{"bufferView":3,"byteOffset":1980,"componentType":5126,"count":10,"min":[-0.04908052086830139,-0.028290599584579469,-0.02829068899154663],"max":[0.04908037185668945,0.028290748596191407,0.028290748596191407],"type":"VEC3","name":"x4_FMS_Screen_2_vertices#0_POSITION"},{"bufferView":3,"byteOffset":1992,"componentType":5120,"count":10,"type":"VEC4","name":"x4_FMS_Screen_2_vertices#0_TANGENT"},{"bufferView":3,"byteOffset":1996,"componentType":5120,"count":10,"type":"VEC4","name":"x4_FMS_Screen_2_vertices#0_NORMAL"},{"bufferView":3,"byteOffset":2000,"componentType":5122,"count":10,"type":"VEC2","name":"x4_FMS_Screen_2_vertices#0_TEXCOORD_0"},{"bufferView":3,"byteOffset":2004,"componentType":5122,"count":10,"type":"VEC2","name":"x4_FMS_Screen_2_vertices#0_TEXCOORD_1"},{"bufferView":3,"byteOffset":2008,"componentType":5123,"count":10,"type":"VEC4","name":"x4_FMS_Screen_2_vertices#0_COLOR_0"},{"bufferView":4,"byteOffset":294,"componentType":5123,"count":24,"type":"SCALAR","name":"x4_FMS_Screen_2_indices#0"},{"bufferView":3,"byteOffset":2340,"componentType":5126,"count":45,"min":[0.005405358970165253,-0.019072534516453744,0.24074162542819978],"max":[0.13812148571014405,0.09507301449775696,0.35439392924308779],"type":"VEC3","name":"x4_CDU_Frame_2_vertices#0_POSITION"},{"bufferView":3,"byteOffset":2352,"componentType":5120,"count":45,"type":"VEC4","name":"x4_CDU_Frame_2_vertices#0_TANGENT"},{"bufferView":3,"byteOffset":2356,"componentType":5120,"count":45,"type":"VEC4","name":"x4_CDU_Frame_2_vertices#0_NORMAL"},{"bufferView":3,"byteOffset":2360,"componentType":5122,"count":45,"type":"VEC2","name":"x4_CDU_Frame_2_vertices#0_TEXCOORD_0"},{"bufferView":3,"byteOffset":2364,"componentType":5122,"count":45,"type":"VEC2","name":"x4_CDU_Frame_2_vertices#0_TEXCOORD_1"},{"bufferView":3,"byteOffset":2368,"componentType":5123,"count":45,"type":"VEC4","name":"x4_CDU_Frame_2_vertices#0_COLOR_0"},{"bufferView":4,"byteOffset":342,"componentType":5123,"count":123,"type":"SCALAR","name":"x4_CDU_Frame_2_indices#0"},{"bufferView":3,"byteOffset":3960,"componentType":5126,"count":69,"min":[-0.0469212532043457,-0.18845920264720918,-0.06648046523332596],"max":[0.14858973026275636,0.20000553131103517,0.0021900516003370287],"type":"VEC3","name":"x4_HANDLING_Yoke_2_vertices#0_POSITION"},{"bufferView":3,"byteOffset":3972,"componentType":5120,"count":69,"type":"VEC4","name":"x4_HANDLING_Yoke_2_vertices#0_TANGENT"},{"bufferView":3,"byteOffset":3976,"componentType":5120,"count":69,"type":"VEC4","name":"x4_HANDLING_Yoke_2_vertices#0_NORMAL"},{"bufferView":3,"byteOffset":3980,"componentType":5122,"count":69,"type":"VEC2","name":"x4_HANDLING_Yoke_2_vertices#0_TEXCOORD_0"},{"bufferView":3,"byteOffset":3984,"componentType":5122,"count":69,"type":"VEC2","name":"x4_HANDLING_Yoke_2_vertices#0_TEXCOORD_1"},{"bufferView":3,"byteOffset":3988,"componentType":5123,"count":69,"type":"VEC4","name":"x4_HANDLING_Yoke_2_vertices#0_COLOR_0"},{"bufferView":4,"byteOffset":588,"componentType":5123,"count":111,"type":"SCALAR","name":"x4_HANDLING_Yoke_2_indices#0"},{"bufferView":3,"byteOffset":6444,"componentType":5126,"count":52,"min":[-0.026646802201867105,-0.19788147509098054,-0.06469164788722992],"max":[0.1513100117444992,0.20030423998832704,0.006207593251019716],"type":"VEC3","name":"x4_HANDLING_Yoke_1_vertices#0_POSITION"},{"bufferView":3,"byteOffset":6456,"componentType":5120,"count":52,"type":"VEC4","name":"x4_HANDLING_Yoke_1_vertices#0_TANGENT"},{"bufferView":3,"byteOffset":6460,"componentType":5120,"count":52,"type":"VEC4","name":"x4_HANDLING_Yoke_1_vertices#0_NORMAL"},{"bufferView":3,"byteOffset":6464,"componentType":5122,"count":52,"type":"VEC2","name":"x4_HANDLING_Yoke_1_vertices#0_TEXCOORD_0"},{"bufferView":3,"byteOffset":6468,"componentType":5122,"count":52,"type":"VEC2","name":"x4_HANDLING_Yoke_1_vertices#0_TEXCOORD_1"},{"bufferView":3,"byteOffset":6472,"componentType":5123,"count":52,"type":"VEC4","name":"x4_HANDLING_Yoke_1_vertices#0_COLOR_0"},{"bufferView":4,"byteOffset":810,"componentType":5123,"count":75,"type":"SCALAR","name":"x4_HANDLING_Yoke_1_indices#0"},{"bufferView":3,"byteOffset":8316,"componentType":5126,"count":8,"min":[-458.91851806640627,-344.5085144042969,-502.5494384765625],"max":[457.0926513671875,-135.92410278320313,-484.3450927734375],"type":"VEC3","name":"x4_PFD_Screens_vertices#0_POSITION"},{"bufferView":3,"byteOffset":8328,"componentType":5120,"count":8,"type":"VEC4","name":"x4_PFD_Screens_vertices#0_TANGENT"},{"bufferView":3,"byteOffset":8332,"componentType":5120,"count":8,"type":"VEC4","name":"x4_PFD_Screens_vertices#0_NORMAL"},{"bufferView":3,"byteOffset":8336,"componentType":5122,"count":8,"type":"VEC2","name":"x4_PFD_Screens_vertices#0_TEXCOORD_0"},{"bufferView":3,"byteOffset":8340,"componentType":5122,"count":8,"type":"VEC2","name":"x4_PFD_Screens_vertices#0_TEXCOORD_1"},{"bufferView":3,"byteOffset":8344,"componentType":5123,"count":8,"type":"VEC4","name":"x4_PFD_Screens_vertices#0_COLOR_0"},{"bufferView":4,"byteOffset":960,"componentType":5123,"count":12,"type":"SCALAR","name":"x4_PFD_Screens_indices#0"},{"bufferView":3,"byteOffset":8604,"componentType":5126,"count":463,"min":[-777.9224853515625,-944.806884765625,-349.69036865234377],"max":[903.391357421875,855.7184448242188,6652.51611328125],"type":"VEC3","name":"x4_Cabin_vertices#0_POSITION"},{"bufferView":3,"byteOffset":8616,"componentType":5120,"count":463,"type":"VEC4","name":"x4_Cabin_vertices#0_TANGENT"},{"bufferView":3,"byteOffset":8620,"componentType":5120,"count":463,"type":"VEC4","name":"x4_Cabin_vertices#0_NORMAL"},{"bufferView":3,"byteOffset":8624,"componentType":5122,"count":463,"type":"VEC2","name":"x4_Cabin_vertices#0_TEXCOORD_0"},{"bufferView":3,"byteOffset":8628,"componentType":5122,"count":463,"type":"VEC2","name":"x4_Cabin_vertices#0_TEXCOORD_1"},{"bufferView":3,"byteOffset":8632,"componentType":5123,"count":463,"type":"VEC4","name":"x4_Cabin_vertices#0_COLOR_0"},{"bufferView":4,"byteOffset":984,"componentType":5123,"count":1104,"type":"SCALAR","name":"x4_Cabin_indices#1"},{"bufferView":3,"byteOffset":25272,"componentType":5126,"count":4,"min":[-0.07478659600019455,-0.10216853022575379,-0.0009161990601569414],"max":[0.07479774951934815,0.10247117280960083,-0.0009160290937870741],"type":"VEC3","name":"x4_MFD_Screen_1_vertices#0_POSITION"},{"bufferView":3,"byteOffset":25284,"componentType":5120,"count":4,"type":"VEC4","name":"x4_MFD_Screen_1_vertices#0_TANGENT"},{"bufferView":3,"byteOffset":25288,"componentType":5120,"count":4,"type":"VEC4","name":"x4_MFD_Screen_1_vertices#0_NORMAL"},{"bufferView":3,"byteOffset":25292,"componentType":5122,"count":4,"type":"VEC2","name":"x4_MFD_Screen_1_vertices#0_TEXCOORD_0"},{"bufferView":3,"byteOffset":25296,"componentType":5122,"count":4,"type":"VEC2","name":"x4_MFD_Screen_1_vertices#0_TEXCOORD_1"},{"bufferView":3,"byteOffset":25300,"componentType":5123,"count":4,"type":"VEC4","name":"x4_MFD_Screen_1_vertices#0_COLOR_0"},{"bufferView":4,"byteOffset":3192,"componentType":5123,"count":6,"type":"SCALAR","name":"x4_MFD_Screen_1_indices#0"},{"bufferView":3,"byteOffset":25416,"componentType":5126,"count":4,"min":[-0.07478659600019455,-0.10216853022575379,-0.0009161990601569414],"max":[0.07479774951934815,0.10247117280960083,-0.0009160290937870741],"type":"VEC3","name":"x4_MFD_Screen_2_vertices#0_POSITION"},{"bufferView":3,"byteOffset":25428,"componentType":5120,"count":4,"type":"VEC4","name":"x4_MFD_Screen_2_vertices#0_TANGENT"},{"bufferView":3,"byteOffset":25432,"componentType":5120,"count":4,"type":"VEC4","name":"x4_MFD_Screen_2_vertices#0_NORMAL"},{"bufferView":3,"byteOffset":25436,"componentType":5122,"count":4,"type":"VEC2","name":"x4_MFD_Screen_2_vertices#0_TEXCOORD_0"},{"bufferView":3,"byteOffset":25440,"componentType":5122,"count":4,"type":"VEC2","name":"x4_MFD_Screen_2_vertices#0_TEXCOORD_1"},{"bufferView":3,"byteOffset":25444,"componentType":5123,"count":4,"type":"VEC4","name":"x4_MFD_Screen_2_vertices#0_COLOR_0"},{"bufferView":4,"byteOffset":3204,"componentType":5123,"count":6,"type":"SCALAR","name":"x4_MFD_Screen_2_indices#0"}],"animations":[{"name":"All Animations","channels":[{"sampler":0,"target":{"node":6,"path":"translation"}},{"sampler":1,"target":{"node":6,"path":"rotation"}},{"sampler":2,"target":{"node":6,"path":"scale"}},{"sampler":3,"target":{"node":7,"path":"translation"}},{"sampler":4,"target":{"node":7,"path":"rotation"}},{"sampler":5,"target":{"node":7,"path":"scale"}}],"samplers":[{"input":0,"output":1,"interpolation":"LINEAR"},{"input":2,"output":3,"interpolation":"LINEAR"},{"input":4,"output":5,"interpolation":"LINEAR"},{"input":6,"output":7,"interpolation":"LINEAR"},{"input":8,"output":9,"interpolation":"LINEAR"},{"input":10,"output":11,"interpolation":"LINEAR"}]}],"asset":{"generator":"babylon.js glTF exporter for 3dsmax 2019 v1.0.7830.27499","version":"2.0","extensions":{"ASOBO_asset_optimized":{"BoundingBoxMax":[903.391357421875,855.7184448242188,6652.51611328125],"BoundingBoxMin":[-777.9224853515625,-944.806884765625,-502.5494384765625],"MajorVersion":4,"MinorVersion":3,"UseCheckerboardMaterialForMissingTextures":true},"ASOBO_normal_map_convention":{"tangent_space_convention":"DirectX"}}},"bufferViews":[{"buffer":0,"byteLength":5688,"name":"bufferViewAnimationFloatScalar"},{"buffer":0,"byteLength":11376,"byteOffset":5688,"name":"bufferViewAnimationFloatVec3"},{"buffer":0,"byteLength":7584,"byteOffset":17064,"name":"bufferViewAnimationFloatVec4"},{"buffer":0,"byteLength":25560,"byteStride":36,"byteOffset":24648,"target":34962,"name":"BufferViewVertexND"},{"buffer":0,"byteLength":3216,"byteOffset":50208,"target":34963,"name":"BufferViewIndex"}],"extensionsRequired":["MSFT_texture_dds"],"materials":[{"name":"$FMS_Screen","emissiveFactor":[1.0,1.0,1.0]},{"name":"FMS_Frame","normalTexture":{"index":2},"occlusionTexture":{"index":1},"pbrMetallicRoughness":{"baseColorTexture":{"index":0},"metallicRoughnessTexture":{"index":1}}},{"name":"Generic_LOD5","occlusionTexture":{"index":4},"pbrMetallicRoughness":{"baseColorTexture":{"index":3},"metallicRoughnessTexture":{"index":4}}},{"name":"$PFD_Screen","emissiveFactor":[1.0,1.0,1.0]},{"name":"$RegistrationNumber","alphaMode":"BLEND","pbrMetallicRoughness":{"baseColorFactor":[0.92,0.92,0.92,1.0],"metallicFactor":0.0,"roughnessFactor":0.1},"extensions":{"ASOBO_material_blend_gbuffer":{"emissiveBlendFactor":0.0,"normalBlendFactor":0.0,"occlusionBlendFactor":0.0},"ASOBO_material_draw_order":{"drawOrderOffset":30},"ASOBO_material_shadow_options":{"noCastShadow":true},"ASOBO_tags":{"tags":["Collision"]}}},{"name":"$MFD_Screen"}],"meshes":[{"primitives":[{"attributes":{"COLOR_0":17,"NORMAL":14,"POSITION":12,"TANGENT":13,"TEXCOORD_0":15,"TEXCOORD_1":16},"indices":18,"material":0,"mode":4,"extras":{"ASOBO_primitive":{"PrimitiveCount":8,"VertexType":"VTX","VertexVersion":2}}}],"name":"x4_FMS_Screen_1"},{"primitives":[{"attributes":{"COLOR_0":24,"NORMAL":21,"POSITION":19,"TANGENT":20,"TEXCOORD_0":22,"TEXCOORD_1":23},"indices":25,"material":1,"mode":4,"extras":{"ASOBO_primitive":{"PrimitiveCount":41,"VertexType":"VTX","VertexVersion":2}}}],"name":"x4_CDU_Frame_1"},{"primitives":[{"attributes":{"COLOR_0":31,"NORMAL":28,"POSITION":26,"TANGENT":27,"TEXCOORD_0":29,"TEXCOORD_1":30},"indices":32,"material":0,"mode":4,"extras":{"ASOBO_primitive":{"PrimitiveCount":8,"VertexType":"VTX","VertexVersion":2}}}],"name":"x4_FMS_Screen_2"},{"primitives":[{"attributes":{"COLOR_0":38,"NORMAL":35,"POSITION":33,"TANGENT":34,"TEXCOORD_0":36,"TEXCOORD_1":37},"indices":39,"material":1,"mode":4,"extras":{"ASOBO_primitive":{"PrimitiveCount":41,"VertexType":"VTX","VertexVersion":2}}}],"name":"x4_CDU_Frame_2"},{"primitives":[{"attributes":{"COLOR_0":45,"NORMAL":42,"POSITION":40,"TANGENT":41,"TEXCOORD_0":43,"TEXCOORD_1":44},"indices":46,"material":2,"mode":4,"extras":{"ASOBO_primitive":{"PrimitiveCount":37,"VertexType":"VTX","VertexVersion":2}}}],"name":"x4_HANDLING_Yoke_2"},{"primitives":[{"attributes":{"COLOR_0":52,"NORMAL":49,"POSITION":47,"TANGENT":48,"TEXCOORD_0":50,"TEXCOORD_1":51},"indices":53,"material":2,"mode":4,"extras":{"ASOBO_primitive":{"PrimitiveCount":25,"VertexType":"VTX","VertexVersion":2}}}],"name":"x4_HANDLING_Yoke_1"},{"primitives":[{"attributes":{"COLOR_0":59,"NORMAL":56,"POSITION":54,"TANGENT":55,"TEXCOORD_0":57,"TEXCOORD_1":58},"indices":60,"material":3,"mode":4,"extras":{"ASOBO_primitive":{"PrimitiveCount":4,"VertexType":"VTX","VertexVersion":2}}}],"name":"x4_PFD_Screens"},{"primitives":[{"attributes":{"COLOR_0":66,"NORMAL":63,"POSITION":61,"TANGENT":62,"TEXCOORD_0":64,"TEXCOORD_1":65},"indices":67,"material":2,"mode":4,"extras":{"ASOBO_primitive":{"PrimitiveCount":362,"VertexType":"VTX","VertexVersion":2}}},{"attributes":{"COLOR_0":66,"NORMAL":63,"POSITION":61,"TANGENT":62,"TEXCOORD_0":64,"TEXCOORD_1":65},"indices":67,"material":4,"mode":4,"extras":{"ASOBO_primitive":{"PrimitiveCount":6,"StartIndex":1086,"VertexType":"VTX","VertexVersion":2}}}],"name":"x4_Cabin"},{"primitives":[{"attributes":{"COLOR_0":73,"NORMAL":70,"POSITION":68,"TANGENT":69,"TEXCOORD_0":71,"TEXCOORD_1":72},"indices":74,"material":5,"mode":4,"extras":{"ASOBO_primitive":{"PrimitiveCount":2,"VertexType":"VTX","VertexVersion":2}}}],"name":"x4_MFD_Screen_1"},{"primitives":[{"attributes":{"COLOR_0":80,"NORMAL":77,"POSITION":75,"TANGENT":76,"TEXCOORD_0":78,"TEXCOORD_1":79},"indices":81,"material":5,"mode":4,"extras":{"ASOBO_primitive":{"PrimitiveCount":2,"VertexType":"VTX","VertexVersion":2}}}],"name":"x4_MFD_Screen_2"}],"nodes":[{"translation":[0.06757313,0.846712351,4.26890659],"rotation":[-0.382542461,0.0,0.0,0.9239379],"extensions":{"ASOBO_unique_id":{"id":"CONTAINER_FMS_CJ4_1_18737"}},"name":"CONTAINER_FMS_CJ4_1","children":[1,2]},{"translation":[0.000614002347,0.007686138,0.02800417],"rotation":[0.382683456,0.0,0.0,0.923879564],"scale":[1.0,0.99999994,0.99999994],"mesh":0,"extensions":{"ASOBO_unique_id":{"id":"x4_FMS_Screen_1_46699"}},"name":"FMS_Screen_1"},{"translation":[-0.0711462051,0.193483829,-0.2419529],"rotation":[0.382683456,0.0,0.0,0.923879564],"scale":[1.0,0.99999994,0.99999994],"mesh":1,"extensions":{"ASOBO_unique_id":{"id":"x4_CDU_Frame_1_46700"}},"name":"CDU_Frame_1"},{"translation":[-0.0680421,0.846712351,4.26890659],"rotation":[-0.382542461,0.0,0.0,0.9239379],"extensions":{"ASOBO_unique_id":{"id":"CONTAINER_FMS_CJ4_2_18887"}},"name":"CONTAINER_FMS_CJ4_2","children":[4,5]},{"translation":[0.000614002347,0.007686138,0.02800417],"rotation":[0.382683456,0.0,0.0,0.923879564],"scale":[1.0,0.99999994,0.99999994],"mesh":2,"extensions":{"ASOBO_unique_id":{"id":"x4_FMS_Screen_2_47003"}},"name":"FMS_Screen_2"},{"translation":[-0.0711462051,0.193483829,-0.2419529],"rotation":[0.382683456,0.0,0.0,0.923879564],"scale":[1.0,0.99999994,0.99999994],"mesh":3,"extensions":{"ASOBO_unique_id":{"id":"x4_CDU_Frame_2_47004"}},"name":"CDU_Frame_2"},{"translation":[-0.344400048,0.9602583,4.13643551],"rotation":[0.06073025,0.0,0.0,0.9981542],"scale":[0.99999994,1.00000083,1.00000083],"mesh":4,"extensions":{"ASOBO_unique_id":{"id":"x4_HANDLING_Yoke_2_32143"}},"name":"HANDLING_Yoke_2"},{"translation":[0.335959077,0.9602583,4.13643551],"rotation":[0.0607302338,0.0,0.0,0.9981542],"scale":[0.99999994,1.00000107,1.00000107],"mesh":5,"extensions":{"ASOBO_unique_id":{"id":"x4_HANDLING_Yoke_1_32145"}},"name":"HANDLING_Yoke_1"},{"translation":[-6.70552254e-8,1.240388,3.82935929],"rotation":[-3.293172e-9,-0.999048233,0.0436193831,-7.542604e-8],"scale":[0.0009787936,0.0009787936,0.0009787936],"mesh":6,"extensions":{"ASOBO_unique_id":{"id":"x4_PFD_Screens_32175"}},"name":"PFD_Screens"},{"translation":[0.0476321764,1.36733222,4.362232],"rotation":[-3.29317151e-9,-0.999048233,0.0436193757,-7.542604e-8],"scale":[0.0009787936,0.0009787936,0.0009787936],"mesh":7,"extensions":{"ASOBO_unique_id":{"id":"x4_Cabin_40714"}},"name":"Cabin"},{"translation":[0.158776373,1.04788816,4.33288956],"mesh":8,"extensions":{"ASOBO_unique_id":{"id":"x4_MFD_Screen_1_47254"}},"name":"MFD_Screen_1"},{"translation":[-0.1618213,1.04788816,4.33288956],"mesh":9,"extensions":{"ASOBO_unique_id":{"id":"x4_MFD_Screen_2_47255"}},"name":"MFD_Screen_2"},{"translation":[0.3293782,0.6439392,3.69072127],"extensions":{"ASOBO_unique_id":{"id":"PILOT_0_31486"}},"name":"PILOT_0"},{"translation":[-0.3283366,0.6439392,3.69072127],"extensions":{"ASOBO_unique_id":{"id":"PILOT_1_31488"}},"name":"PILOT_1"}],"scene":0,"scenes":[{"nodes":[0,3,6,7,8,9,10,11,12,13]}],"textures":[{"extensions":{"MSFT_texture_dds":{"source":0}}},{"extensions":{"MSFT_texture_dds":{"source":1}}},{"extensions":{"MSFT_texture_dds":{"source":2}}},{"extensions":{"MSFT_texture_dds":{"source":3}}},{"extensions":{"MSFT_texture_dds":{"source":4}}}],"extensionsUsed":["ASOBO_normal_map_convention","ASOBO_unique_id","ASOBO_material_draw_order","ASOBO_tags","ASOBO_material_shadow_options","ASOBO_material_blend_gbuffer","MSFT_texture_dds","ASOBO_asset_optimized"],"buffers":[{"byteLength":53424,"uri":"CJ4_Cockpit_LOD04.bin"}],"images":[{"uri":"CJ4_COCKPIT_PANEL_ALBD.PNG.DDS","extras":"ASOBO_image_converted_meta"},{"uri":"CJ4_COCKPIT_PANEL_COMP.PNG.DDS","extras":"ASOBO_image_converted_meta"},{"uri":"CJ4_COCKPIT_PANEL_NORM.PNG.DDS","extras":"ASOBO_image_converted_meta"},{"uri":"ATLAS_ALBD.PNG.DDS","extras":"ASOBO_image_converted_meta"},{"uri":"ATLAS_COMP.PNG.DDS","extras":"ASOBO_image_converted_meta"}]}
